<svg width="20" height="20" viewBox="0 0 20 20" fill="none" xmlns="http://www.w3.org/2000/svg">
<path d="M15.8333 5H4.16667C3.24619 5 2.5 5.74619 2.5 6.66667V15.8333C2.5 16.7538 3.24619 17.5 4.16667 17.5H15.8333C16.7538 17.5 17.5 16.7538 17.5 15.8333V6.66667C17.5 5.74619 16.7538 5 15.8333 5Z" stroke="#5E5E5E" stroke-width="2"/>
<path d="M2.5 8.33333C2.5 6.76167 2.5 5.97667 2.98833 5.48833C3.47667 5 4.26167 5 5.83333 5H14.1667C15.7383 5 16.5233 5 17.0117 5.48833C17.5 5.97667 17.5 6.76167 17.5 8.33333H2.5Z" fill="#5E5E5E"/>
<path d="M5.8335 2.5V5M14.1668 2.5V5" stroke="#5E5E5E" stroke-width="2" stroke-linecap="round"/>
<path d="M8.75016 10H6.25016C6.02004 10 5.8335 10.1865 5.8335 10.4167V11.25C5.8335 11.4801 6.02004 11.6667 6.25016 11.6667H8.75016C8.98028 11.6667 9.16683 11.4801 9.16683 11.25V10.4167C9.16683 10.1865 8.98028 10 8.75016 10Z" fill="#5E5E5E"/>
<path d="M8.75016 13.3335H6.25016C6.02004 13.3335 5.8335 13.52 5.8335 13.7502V14.5835C5.8335 14.8136 6.02004 15.0002 6.25016 15.0002H8.75016C8.98028 15.0002 9.16683 14.8136 9.16683 14.5835V13.7502C9.16683 13.52 8.98028 13.3335 8.75016 13.3335Z" fill="#5E5E5E"/>
<path d="M13.7502 10H11.2502C11.02 10 10.8335 10.1865 10.8335 10.4167V11.25C10.8335 11.4801 11.02 11.6667 11.2502 11.6667H13.7502C13.9803 11.6667 14.1668 11.4801 14.1668 11.25V10.4167C14.1668 10.1865 13.9803 10 13.7502 10Z" fill="#5E5E5E"/>
<path d="M13.7502 13.3335H11.2502C11.02 13.3335 10.8335 13.52 10.8335 13.7502V14.5835C10.8335 14.8136 11.02 15.0002 11.2502 15.0002H13.7502C13.9803 15.0002 14.1668 14.8136 14.1668 14.5835V13.7502C14.1668 13.52 13.9803 13.3335 13.7502 13.3335Z" fill="#5E5E5E"/>
</svg>
