<svg width="112" height="112" viewBox="0 0 112 112" fill="none" xmlns="http://www.w3.org/2000/svg">
<rect width="112" height="112" rx="56" fill="#FF7070"/>
<path d="M74 58.9941H59V73.9941C59 74.7898 58.6839 75.5529 58.1213 76.1155C57.5587 76.6781 56.7956 76.9941 56 76.9941C55.2044 76.9941 54.4413 76.6781 53.8787 76.1155C53.3161 75.5529 53 74.7898 53 73.9941V58.9941H38C37.2044 58.9941 36.4413 58.6781 35.8787 58.1155C35.3161 57.5529 35 56.7898 35 55.9941C35 55.1985 35.3161 54.4354 35.8787 53.8728C36.4413 53.3102 37.2044 52.9941 38 52.9941H53V37.9941C53 37.1985 53.3161 36.4354 53.8787 35.8728C54.4413 35.3102 55.2044 34.9941 56 34.9941C56.7956 34.9941 57.5587 35.3102 58.1213 35.8728C58.6839 36.4354 59 37.1985 59 37.9941V52.9941H74C74.7957 52.9941 75.5587 53.3102 76.1213 53.8728C76.6839 54.4354 77 55.1985 77 55.9941C77 56.7898 76.6839 57.5529 76.1213 58.1155C75.5587 58.6781 74.7957 58.9941 74 58.9941Z" fill="#FFFFFC"/>
</svg>
