<svg width="50" height="50" viewBox="0 0 50 50" fill="none" xmlns="http://www.w3.org/2000/svg">
<path d="M21.0729 45.4393C22.3354 46.4809 23.6521 47.433 25 48.3622C26.3508 47.4453 27.6611 46.4701 28.9271 45.4393C31.0375 43.7064 33.0236 41.8275 34.8708 39.8163C39.1292 35.1601 43.75 28.4101 43.75 20.833C43.75 18.3707 43.265 15.9325 42.3227 13.6577C41.3805 11.3828 39.9993 9.31585 38.2582 7.57476C36.5172 5.83366 34.4502 4.45254 32.1753 3.51027C29.9005 2.56799 27.4623 2.08301 25 2.08301C22.5377 2.08301 20.0995 2.56799 17.8247 3.51027C15.5498 4.45254 13.4828 5.83366 11.7417 7.57476C10.0006 9.31585 8.61953 11.3828 7.67726 13.6577C6.73498 15.9325 6.25 18.3707 6.25 20.833C6.25 28.4101 10.8708 35.158 15.1292 39.8163C16.9763 41.8282 18.9624 43.7057 21.0729 45.4393ZM25 27.6038C23.2043 27.6038 21.4821 26.8905 20.2123 25.6207C18.9425 24.3509 18.2292 22.6287 18.2292 20.833C18.2292 19.0373 18.9425 17.3151 20.2123 16.0453C21.4821 14.7755 23.2043 14.0622 25 14.0622C26.7957 14.0622 28.5179 14.7755 29.7877 16.0453C31.0575 17.3151 31.7708 19.0373 31.7708 20.833C31.7708 22.6287 31.0575 24.3509 29.7877 25.6207C28.5179 26.8905 26.7957 27.6038 25 27.6038Z" fill="black"/>
</svg>
