<svg width="50" height="50" viewBox="0 0 50 50" fill="none" xmlns="http://www.w3.org/2000/svg">
<path d="M26.987 3.54181C26.8543 3.11874 26.5901 2.74904 26.2328 2.4865C25.8754 2.22396 25.4437 2.08226 25.0003 2.08203C24.5569 2.0818 24.125 2.22304 23.7674 2.48521C23.4098 2.74737 23.1452 3.11679 23.012 3.53973L18.462 17.9564L4.16827 17.946C3.72265 17.9449 3.28844 18.0868 2.9294 18.3508C2.57036 18.6147 2.30542 18.9868 2.17348 19.4125C2.04155 19.8381 2.04957 20.2949 2.19637 20.7156C2.34317 21.1364 2.62102 21.499 2.98911 21.7501L14.4433 29.5876L10.137 43.2231C10.0071 43.6393 10.011 44.0858 10.1483 44.4997C10.2856 44.9136 10.5493 45.274 10.9023 45.5301C11.2552 45.7862 11.6796 45.925 12.1157 45.9272C12.5517 45.9293 12.9775 45.7945 13.3329 45.5418L24.9995 37.196L36.6537 45.5439C37.0092 45.7986 37.4358 45.9349 37.8731 45.9337C38.3104 45.9324 38.7362 45.7936 39.0902 45.5368C39.4442 45.2801 39.7084 44.9185 39.8454 44.5032C39.9825 44.0879 39.9854 43.6401 39.8537 43.2231L35.5474 29.5876L47.0099 21.7501C47.378 21.499 47.6559 21.1364 47.8027 20.7156C47.9495 20.2949 47.9575 19.8381 47.8256 19.4125C47.6936 18.9868 47.4287 18.6147 47.0696 18.3508C46.7106 18.0868 46.2764 17.9449 45.8308 17.946L31.5266 17.9564L26.987 3.54181Z" fill="#FCDC33"/>
</svg>
