<svg width="20" height="20" viewBox="0 0 20 20" fill="none" xmlns="http://www.w3.org/2000/svg">
<path d="M8.42917 18.176C8.93417 18.5927 9.46083 18.9735 10 19.3452C10.5403 18.9784 11.0644 18.5883 11.5708 18.176C12.415 17.4828 13.2095 16.7313 13.9483 15.9268C15.6517 14.0643 17.5 11.3643 17.5 8.3335C17.5 7.34858 17.306 6.37331 16.9291 5.46337C16.5522 4.55343 15.9997 3.72663 15.3033 3.0302C14.6069 2.33376 13.7801 1.78131 12.8701 1.4044C11.9602 1.02749 10.9849 0.833496 10 0.833496C9.01509 0.833496 8.03982 1.02749 7.12987 1.4044C6.21993 1.78131 5.39314 2.33376 4.6967 3.0302C4.00026 3.72663 3.44781 4.55343 3.0709 5.46337C2.69399 6.37331 2.5 7.34858 2.5 8.3335C2.5 11.3643 4.34833 14.0635 6.05167 15.9268C6.79052 16.7316 7.58497 17.4826 8.42917 18.176ZM10 11.0418C9.28171 11.0418 8.59283 10.7565 8.08492 10.2486C7.57701 9.74067 7.29167 9.05179 7.29167 8.3335C7.29167 7.6152 7.57701 6.92633 8.08492 6.41842C8.59283 5.9105 9.28171 5.62516 10 5.62516C10.7183 5.62516 11.4072 5.9105 11.9151 6.41842C12.423 6.92633 12.7083 7.6152 12.7083 8.3335C12.7083 9.05179 12.423 9.74067 11.9151 10.2486C11.4072 10.7565 10.7183 11.0418 10 11.0418Z" fill="#5E5E5E"/>
</svg>
