<svg width="68" height="68" viewBox="0 0 68 68" fill="none" xmlns="http://www.w3.org/2000/svg">
<path d="M43.9168 39.6668H41.6785L40.8852 38.9018C42.6559 36.8447 43.95 34.4217 44.6749 31.8061C45.3998 29.1905 45.5377 26.4469 45.0785 23.7718C43.7468 15.8952 37.1735 9.60517 29.2402 8.64184C26.4511 8.28899 23.6182 8.57886 20.9584 9.48926C18.2986 10.3997 15.8823 11.9065 13.8944 13.8944C11.9065 15.8823 10.3997 18.2986 9.48926 20.9584C8.57886 23.6182 8.28899 26.4511 8.64184 29.2402C9.60517 37.1735 15.8952 43.7468 23.7718 45.0785C26.4469 45.5377 29.1905 45.3998 31.8061 44.6749C34.4217 43.95 36.8447 42.6559 38.9018 40.8852L39.6668 41.6785V43.9168L51.7085 55.9585C52.8702 57.1202 54.7685 57.1202 55.9302 55.9585C57.0918 54.7968 57.0918 52.8985 55.9302 51.7368L43.9168 39.6668ZM26.9168 39.6668C19.8618 39.6668 14.1668 33.9718 14.1668 26.9168C14.1668 19.8618 19.8618 14.1668 26.9168 14.1668C33.9718 14.1668 39.6668 19.8618 39.6668 26.9168C39.6668 33.9718 33.9718 39.6668 26.9168 39.6668Z" fill="#FFFFFC"/>
</svg>
