<svg width="110" height="110" viewBox="0 0 110 110" fill="none" xmlns="http://www.w3.org/2000/svg">
<rect width="110" height="110" rx="39.6" fill="#EDEDED"/>
<path d="M70.3318 41.5L73.2529 44.4211C73.5112 44.6794 73.6563 45.0296 73.6563 45.3948C73.6563 45.76 73.5112 46.1103 73.2529 46.3685C72.9947 46.6268 72.6445 46.7718 72.2792 46.7718C71.914 46.7718 71.5638 46.6268 71.3055 46.3685L68.3844 43.4474L70.3318 41.5Z" fill="url(#paint0_linear_782_1101)"/>
<path d="M66.4374 45.3934L69.3586 48.3145C69.6168 48.5727 69.7619 48.923 69.7619 49.2882C69.7619 49.6534 69.6168 50.0037 69.3586 50.2619C69.1003 50.5201 68.7501 50.6652 68.3849 50.6652C68.0196 50.6652 67.6694 50.5201 67.4111 50.2619L64.49 47.3408L66.4374 45.3934Z" fill="url(#paint1_linear_782_1101)"/>
<path d="M62.5417 49.2898L65.4628 52.2109C65.5907 52.3388 65.6921 52.4906 65.7613 52.6576C65.8305 52.8247 65.8661 53.0038 65.8661 53.1846C65.8661 53.3654 65.8305 53.5445 65.7613 53.7116C65.6921 53.8786 65.5907 54.0304 65.4628 54.1583C65.2046 54.4166 64.8543 54.5616 64.4891 54.5616C64.1239 54.5616 63.7737 54.4166 63.5154 54.1583L60.5943 51.2372L62.5417 49.2898Z" fill="url(#paint2_linear_782_1101)"/>
<path d="M58.6473 53.1832L61.5684 56.1043C61.8267 56.3625 61.9717 56.7128 61.9717 57.078C61.9717 57.4432 61.8267 57.7935 61.5684 58.0517C61.3102 58.3099 60.9599 58.455 60.5947 58.455C60.2295 58.455 59.8793 58.3099 59.621 58.0517L56.6999 55.1306L58.6473 53.1832Z" fill="url(#paint3_linear_782_1101)"/>
<path d="M54.7526 57.0789L57.6737 60C57.9319 60.2583 58.077 60.6085 58.077 60.9737C58.077 61.3389 57.9319 61.6892 57.6737 61.9474C57.4154 62.2057 57.0652 62.3508 56.7 62.3508C56.3348 62.3508 55.9845 62.2057 55.7263 61.9474L52.8052 59.0263L54.7526 57.0789Z" fill="url(#paint4_linear_782_1101)"/>
<g filter="url(#filter0_bi_782_1101)">
<mask id="path-3-inside-1_782_1101" fill="white">
<path fill-rule="evenodd" clip-rule="evenodd" d="M64.2793 79.8476V80.1159C64.2793 80.8764 64.8958 81.4929 65.6563 81.4929C66.4168 81.4929 67.0333 80.8764 67.0333 80.1159V61.4916C67.0333 60.7311 66.4168 60.1146 65.6563 60.1146C64.8958 60.1146 64.2793 60.7311 64.2793 61.4916V61.8982C60.3213 62.9037 56.6989 64.9363 53.7783 67.7904L46.48 75.0887C46.0925 75.4762 45.567 75.6939 45.019 75.6939C44.471 75.6939 43.9455 75.4762 43.558 75.0887C43.1705 74.7012 42.9528 74.1756 42.9528 73.6277C42.9528 73.0797 43.1705 72.5541 43.558 72.1666L76.1728 39.5532C77.3312 38.3918 78.0356 36.8542 78.1586 35.2185C78.2816 33.5828 77.8151 31.9571 76.8434 30.6356L71.305 23L68.383 23.9736L73.1626 32.8264C73.3463 33.2099 73.4067 33.6409 73.3355 34.0601C73.2642 34.4793 73.0648 34.8662 72.7647 35.1674L37.1245 65.0543C36.8243 65.3022 36.5324 65.5624 36.2515 65.8433C33.9273 68.1675 32.6216 71.3198 32.6216 74.6067C32.6216 77.8936 33.9273 81.0459 36.2515 83.3701C38.5757 85.6943 41.728 87 45.0149 87C48.3018 87 51.4541 85.6943 53.7783 83.3701C55.1514 82.0316 56.8086 81.0198 58.6267 80.41C60.4447 79.8002 62.3768 79.608 64.2793 79.8476Z"/>
</mask>
<path fill-rule="evenodd" clip-rule="evenodd" d="M64.2793 79.8476V80.1159C64.2793 80.8764 64.8958 81.4929 65.6563 81.4929C66.4168 81.4929 67.0333 80.8764 67.0333 80.1159V61.4916C67.0333 60.7311 66.4168 60.1146 65.6563 60.1146C64.8958 60.1146 64.2793 60.7311 64.2793 61.4916V61.8982C60.3213 62.9037 56.6989 64.9363 53.7783 67.7904L46.48 75.0887C46.0925 75.4762 45.567 75.6939 45.019 75.6939C44.471 75.6939 43.9455 75.4762 43.558 75.0887C43.1705 74.7012 42.9528 74.1756 42.9528 73.6277C42.9528 73.0797 43.1705 72.5541 43.558 72.1666L76.1728 39.5532C77.3312 38.3918 78.0356 36.8542 78.1586 35.2185C78.2816 33.5828 77.8151 31.9571 76.8434 30.6356L71.305 23L68.383 23.9736L73.1626 32.8264C73.3463 33.2099 73.4067 33.6409 73.3355 34.0601C73.2642 34.4793 73.0648 34.8662 72.7647 35.1674L37.1245 65.0543C36.8243 65.3022 36.5324 65.5624 36.2515 65.8433C33.9273 68.1675 32.6216 71.3198 32.6216 74.6067C32.6216 77.8936 33.9273 81.0459 36.2515 83.3701C38.5757 85.6943 41.728 87 45.0149 87C48.3018 87 51.4541 85.6943 53.7783 83.3701C55.1514 82.0316 56.8086 81.0198 58.6267 80.41C60.4447 79.8002 62.3768 79.608 64.2793 79.8476Z" fill="url(#paint5_linear_782_1101)" fill-opacity="0.2"/>
<path d="M64.2793 79.8476H65.0793V79.1421L64.3793 79.0539L64.2793 79.8476ZM64.2793 61.8982L64.4763 62.6736L65.0793 62.5204V61.8982H64.2793ZM53.7783 67.7904L53.2191 67.2182L53.2126 67.2248L53.7783 67.7904ZM46.48 75.0887L45.9143 74.523L45.9143 74.523L46.48 75.0887ZM43.558 75.0887L44.1237 74.523L44.1237 74.523L43.558 75.0887ZM43.558 72.1666L42.9923 71.6009L42.9923 71.6009L43.558 72.1666ZM76.1728 39.5532L76.7385 40.1189L76.7392 40.1182L76.1728 39.5532ZM76.8434 30.6356L76.1958 31.1053L76.1989 31.1095L76.8434 30.6356ZM71.305 23L71.9526 22.5303L71.6084 22.0557L71.0521 22.241L71.305 23ZM68.383 23.9736L68.1301 23.2146L67.2266 23.5156L67.679 24.3536L68.383 23.9736ZM73.1626 32.8264L73.8841 32.4808L73.8757 32.4634L73.8666 32.4464L73.1626 32.8264ZM72.7647 35.1674L73.2787 35.7804L73.3061 35.7574L73.3314 35.732L72.7647 35.1674ZM37.1245 65.0543L37.6339 65.6712L37.6386 65.6673L37.1245 65.0543ZM36.2515 65.8433L36.8172 66.409L36.8172 66.409L36.2515 65.8433ZM36.2515 83.3701L36.8172 82.8044L36.8172 82.8044L36.2515 83.3701ZM53.7783 83.3701L53.2198 82.7972L53.2126 82.8044L53.7783 83.3701ZM58.6267 80.41L58.3723 79.6515L58.3723 79.6515L58.6267 80.41ZM63.4793 79.8476V80.1159H65.0793V79.8476H63.4793ZM63.4793 80.1159C63.4793 81.3182 64.454 82.2929 65.6563 82.2929V80.6929C65.3376 80.6929 65.0793 80.4345 65.0793 80.1159H63.4793ZM65.6563 82.2929C66.8587 82.2929 67.8333 81.3182 67.8333 80.1159H66.2333C66.2333 80.4345 65.975 80.6929 65.6563 80.6929V82.2929ZM67.8333 80.1159V61.4916H66.2333V80.1159H67.8333ZM67.8333 61.4916C67.8333 60.2893 66.8587 59.3146 65.6563 59.3146V60.9146C65.975 60.9146 66.2333 61.1729 66.2333 61.4916H67.8333ZM65.6563 59.3146C64.454 59.3146 63.4793 60.2893 63.4793 61.4916H65.0793C65.0793 61.1729 65.3376 60.9146 65.6563 60.9146V59.3146ZM63.4793 61.4916V61.8982H65.0793V61.4916H63.4793ZM64.0823 61.1228C59.9878 62.163 56.2405 64.2657 53.2191 67.2183L54.3374 68.3626C57.1573 65.6069 60.6548 63.6444 64.4763 62.6736L64.0823 61.1228ZM53.2126 67.2248L45.9143 74.523L47.0457 75.6544L54.3439 68.3561L53.2126 67.2248ZM45.9143 74.523C45.6769 74.7604 45.3548 74.8939 45.019 74.8939V76.4939C45.7792 76.4939 46.5082 76.1919 47.0457 75.6544L45.9143 74.523ZM45.019 74.8939C44.6832 74.8939 44.3611 74.7604 44.1237 74.523L42.9923 75.6544C43.5298 76.1919 44.2588 76.4939 45.019 76.4939V74.8939ZM44.1237 74.523C43.8862 74.2855 43.7528 73.9635 43.7528 73.6277H42.1528C42.1528 74.3878 42.4548 75.1168 42.9923 75.6544L44.1237 74.523ZM43.7528 73.6277C43.7528 73.2918 43.8862 72.9698 44.1237 72.7323L42.9923 71.6009C42.4548 72.1385 42.1528 72.8675 42.1528 73.6277H43.7528ZM44.1237 72.7323L76.7385 40.1189L75.6071 38.9875L42.9923 71.6009L44.1237 72.7323ZM76.7392 40.1182C78.0325 38.8215 78.819 37.1048 78.9564 35.2785L77.3609 35.1585C77.2522 36.6037 76.6298 37.9622 75.6064 38.9882L76.7392 40.1182ZM78.9564 35.2785C79.0937 33.4523 78.5728 31.6372 77.4879 30.1617L76.1989 31.1095C77.0573 32.2771 77.4695 33.7134 77.3609 35.1585L78.9564 35.2785ZM77.491 30.1659L71.9526 22.5303L70.6574 23.4697L76.1958 31.1053L77.491 30.1659ZM71.0521 22.241L68.1301 23.2146L68.6358 24.7325L71.5579 23.759L71.0521 22.241ZM67.679 24.3536L72.4587 33.2065L73.8666 32.4464L69.0869 23.5935L67.679 24.3536ZM72.4411 33.1721C72.5534 33.4065 72.5903 33.6698 72.5468 33.926L74.1241 34.1942C74.2231 33.612 74.1393 33.0134 73.8841 32.4808L72.4411 33.1721ZM72.5468 33.926C72.5032 34.1822 72.3814 34.4186 72.1979 34.6027L73.3314 35.732C73.7482 35.3137 74.0252 34.7764 74.1241 34.1942L72.5468 33.926ZM72.2506 34.5544L36.6105 64.4413L37.6386 65.6673L73.2787 35.7804L72.2506 34.5544ZM36.6152 64.4374C36.2994 64.6982 35.988 64.9755 35.6858 65.2777L36.8172 66.409C37.0768 66.1494 37.3493 65.9062 37.6339 65.6712L36.6152 64.4374ZM35.6858 65.2776C33.2116 67.7519 31.8216 71.1076 31.8216 74.6067H33.4216C33.4216 71.532 34.643 68.5832 36.8172 66.409L35.6858 65.2776ZM31.8216 74.6067C31.8216 78.1058 33.2116 81.4616 35.6858 83.9358L36.8172 82.8044C34.643 80.6302 33.4216 77.6814 33.4216 74.6067H31.8216ZM35.6858 83.9358C38.16 86.41 41.5158 87.8 45.0149 87.8V86.2C41.9401 86.2 38.9913 84.9786 36.8172 82.8044L35.6858 83.9358ZM45.0149 87.8C48.5139 87.8 51.8697 86.41 54.3439 83.9358L53.2126 82.8044C51.0384 84.9786 48.0896 86.2 45.0149 86.2V87.8ZM54.3367 83.943C55.6237 82.6884 57.1771 81.7401 58.8811 81.1685L58.3723 79.6515C56.4402 80.2996 54.6791 81.3748 53.2198 82.7972L54.3367 83.943ZM58.8811 81.1685C60.5851 80.5969 62.3961 80.4167 64.1793 80.6414L64.3793 79.0539C62.3575 78.7992 60.3043 79.0035 58.3723 79.6515L58.8811 81.1685Z" fill="url(#paint6_linear_782_1101)" fill-opacity="0.1" mask="url(#path-3-inside-1_782_1101)"/>
</g>
<g filter="url(#filter1_i_782_1101)">
<path d="M67.0348 61.4903C67.0348 60.7298 66.4183 60.1133 65.6578 60.1133C64.8973 60.1133 64.2808 60.7298 64.2808 61.4903V80.1145C64.2808 80.8751 64.8973 81.4916 65.6578 81.4916C66.4183 81.4916 67.0348 80.8751 67.0348 80.1145V61.4903Z" fill="url(#paint7_linear_782_1101)"/>
</g>
<defs>
<filter id="filter0_bi_782_1101" x="16.6216" y="7" width="77.5562" height="96" filterUnits="userSpaceOnUse" color-interpolation-filters="sRGB">
<feFlood flood-opacity="0" result="BackgroundImageFix"/>
<feGaussianBlur in="BackgroundImageFix" stdDeviation="8"/>
<feComposite in2="SourceAlpha" operator="in" result="effect1_backgroundBlur_782_1101"/>
<feBlend mode="normal" in="SourceGraphic" in2="effect1_backgroundBlur_782_1101" result="shape"/>
<feColorMatrix in="SourceAlpha" type="matrix" values="0 0 0 0 0 0 0 0 0 0 0 0 0 0 0 0 0 0 127 0" result="hardAlpha"/>
<feOffset dy="5.33333"/>
<feGaussianBlur stdDeviation="4"/>
<feComposite in2="hardAlpha" operator="arithmetic" k2="-1" k3="1"/>
<feColorMatrix type="matrix" values="0 0 0 0 1 0 0 0 0 1 0 0 0 0 1 0 0 0 0.4 0"/>
<feBlend mode="normal" in2="shape" result="effect2_innerShadow_782_1101"/>
</filter>
<filter id="filter1_i_782_1101" x="64.2808" y="60.1133" width="2.75391" height="26.7122" filterUnits="userSpaceOnUse" color-interpolation-filters="sRGB">
<feFlood flood-opacity="0" result="BackgroundImageFix"/>
<feBlend mode="normal" in="SourceGraphic" in2="BackgroundImageFix" result="shape"/>
<feColorMatrix in="SourceAlpha" type="matrix" values="0 0 0 0 0 0 0 0 0 0 0 0 0 0 0 0 0 0 127 0" result="hardAlpha"/>
<feOffset dy="5.33333"/>
<feGaussianBlur stdDeviation="2.66667"/>
<feComposite in2="hardAlpha" operator="arithmetic" k2="-1" k3="1"/>
<feColorMatrix type="matrix" values="0 0 0 0 1 0 0 0 0 1 0 0 0 0 1 0 0 0 0.4 0"/>
<feBlend mode="normal" in2="shape" result="effect1_innerShadow_782_1101"/>
</filter>
<linearGradient id="paint0_linear_782_1101" x1="52.8052" y1="41.5" x2="77.3671" y2="47.7368" gradientUnits="userSpaceOnUse">
<stop stop-color="#FFA39E"/>
<stop offset="1" stop-color="#F01E33"/>
</linearGradient>
<linearGradient id="paint1_linear_782_1101" x1="52.8052" y1="41.5" x2="77.3671" y2="47.7368" gradientUnits="userSpaceOnUse">
<stop stop-color="#FFA39E"/>
<stop offset="1" stop-color="#F01E33"/>
</linearGradient>
<linearGradient id="paint2_linear_782_1101" x1="52.8052" y1="41.5" x2="77.3671" y2="47.7368" gradientUnits="userSpaceOnUse">
<stop stop-color="#FFA39E"/>
<stop offset="1" stop-color="#F01E33"/>
</linearGradient>
<linearGradient id="paint3_linear_782_1101" x1="52.8052" y1="41.5" x2="77.3671" y2="47.7368" gradientUnits="userSpaceOnUse">
<stop stop-color="#FFA39E"/>
<stop offset="1" stop-color="#F01E33"/>
</linearGradient>
<linearGradient id="paint4_linear_782_1101" x1="52.8052" y1="41.5" x2="77.3671" y2="47.7368" gradientUnits="userSpaceOnUse">
<stop stop-color="#FFA39E"/>
<stop offset="1" stop-color="#F01E33"/>
</linearGradient>
<linearGradient id="paint5_linear_782_1101" x1="32.6216" y1="23" x2="87.9384" y2="32.9982" gradientUnits="userSpaceOnUse">
<stop stop-color="#FFBF80"/>
<stop offset="1" stop-color="#FF384C"/>
</linearGradient>
<linearGradient id="paint6_linear_782_1101" x1="34.0452" y1="25.9091" x2="78.1779" y2="25.9091" gradientUnits="userSpaceOnUse">
<stop stop-color="#FFD580"/>
<stop offset="1" stop-color="#E65A53"/>
</linearGradient>
<linearGradient id="paint7_linear_782_1101" x1="64.2808" y1="60.1133" x2="67.7304" y2="60.2261" gradientUnits="userSpaceOnUse">
<stop stop-color="#FFA39E"/>
<stop offset="1" stop-color="#F01E33"/>
</linearGradient>
</defs>
</svg>
