<svg width="110" height="110" viewBox="0 0 110 110" fill="none" xmlns="http://www.w3.org/2000/svg">
<rect width="110" height="110" rx="39.6" fill="#EDEDED"/>
<g clip-path="url(#clip0_782_1082)">
<path d="M52.0161 68.707V83.3243C52.0161 84.2466 52.3825 85.1312 53.0347 85.7834C53.6869 86.4356 54.5714 86.802 55.4938 86.802C56.4161 86.802 57.3007 86.4356 57.9528 85.7834C58.605 85.1312 58.9714 84.2466 58.9714 83.3243V68.707H52.0161Z" fill="url(#paint0_linear_782_1082)"/>
<path d="M33.2366 79.8386C32.5487 79.8387 31.8762 79.6349 31.3042 79.2527C30.7322 78.8706 30.2863 78.3274 30.0231 77.6919C29.7598 77.0563 29.6909 76.357 29.8252 75.6823C29.9594 75.0076 30.2907 74.3879 30.7772 73.9016L43.2968 61.382C43.6197 61.059 44.0032 60.8028 44.4252 60.628C44.8471 60.4532 45.2994 60.3633 45.7562 60.3633C46.2129 60.3633 46.6652 60.4532 47.0872 60.628C47.5092 60.8028 47.8926 61.059 48.2156 61.382C48.5385 61.705 48.7947 62.0884 48.9695 62.5104C49.1443 62.9324 49.2343 63.3846 49.2343 63.8414C49.2343 64.2981 49.1443 64.7504 48.9695 65.1724C48.7947 65.5944 48.5385 65.9778 48.2156 66.3008L35.696 78.8204C35.3733 79.1436 34.9899 79.4 34.5678 79.5747C34.1458 79.7495 33.6934 79.8392 33.2366 79.8386Z" fill="url(#paint1_linear_782_1082)"/>
<path d="M54.7981 36.7114C58.6394 36.7114 61.7534 33.5974 61.7534 29.7561C61.7534 25.9148 58.6394 22.8008 54.7981 22.8008C50.9568 22.8008 47.8428 25.9148 47.8428 29.7561C47.8428 33.5974 50.9568 36.7114 54.7981 36.7114Z" fill="url(#paint2_linear_782_1082)"/>
<path d="M76.7546 38.2845C76.6633 37.997 76.5184 37.7312 76.3284 37.5023C76.1384 37.2733 75.9069 37.0857 75.6473 36.9502C75.3877 36.8148 75.105 36.7341 74.8154 36.7127C74.5259 36.6914 74.2351 36.7299 73.9598 36.826L61.0606 41.3153H34.9377C34.3524 41.3153 33.7911 41.5579 33.3773 41.9896C32.9634 42.4213 32.731 43.0069 32.731 43.6175C32.731 44.2281 32.9634 43.336 33.3773 43.7677C33.7911 44.1994 34.3524 44.442 34.9377 44.442H48.1779V49.1324C48.1814 49.9191 47.926 50.6832 47.4542 51.2969C46.9824 51.9107 46.3229 52.3368 45.5861 52.5039L39.1116 54.0004C38.8659 54.0574 38.6462 54.2003 38.489 54.4055C38.3319 54.6107 38.2467 54.8658 38.2477 55.1284C38.2479 58.088 39.0892 60.981 40.6653 63.4417C42.2414 65.9024 44.4815 67.8202 47.1023 68.9528C49.7232 70.0853 52.6071 70.3816 55.3893 69.8043C58.1716 69.227 60.7273 67.8019 62.7333 65.7093C62.864 65.5732 62.9599 65.405 63.0121 65.2202C63.0644 65.0354 63.0713 64.8398 63.0323 64.6515L60.3533 51.7408L61.5555 45.7551L74.6446 41.2002C74.9201 41.1049 75.1749 40.9537 75.3943 40.7555C75.6138 40.5573 75.7936 40.3158 75.9235 40.045C76.0533 39.7741 76.1307 39.4792 76.1511 39.1771C76.1715 38.875 76.8468 38.5717 76.7546 38.2845Z" fill="url(#paint3_linear_782_1082)"/>
<g filter="url(#filter0_bi_782_1082)">
<path d="M82.4804 35.8321C82.3652 35.4847 82.1826 35.1635 81.943 34.8868C81.7035 34.6101 81.4117 34.3834 81.0844 34.2197C80.7571 34.056 80.4007 33.9584 80.0356 33.9327C79.6705 33.9069 79.3039 33.9534 78.9569 34.0696L62.694 39.4947H29.7592C29.0213 39.4947 28.3137 39.7878 27.7919 40.3096C27.2702 40.8313 26.9771 41.539 26.9771 42.2769C26.9771 43.0147 27.2702 43.7224 27.7919 44.2441C28.3137 44.7659 29.0213 45.059 29.7592 45.059H46.4519V48.9414C46.4564 49.8921 46.1343 50.8156 45.5395 51.5572C44.9447 52.2989 44.1133 52.8138 43.1843 53.0159L35.0216 54.8242C34.7117 54.8931 34.4348 55.0659 34.2366 55.3138C34.0385 55.5618 33.9311 55.8701 33.9324 56.1875C33.9326 59.764 34.9933 63.2601 36.9804 66.2337C38.9675 69.2074 41.7917 71.5251 45.0959 72.8937C48.4002 74.2624 52.0361 74.6205 55.5439 73.9228C59.0516 73.2251 62.2738 71.503 64.8028 68.9741C64.9676 68.8096 65.0885 68.6064 65.1544 68.383C65.2202 68.1597 65.229 67.9233 65.1798 67.6957L61.8023 52.0936L64.2158 44.8601L80.718 39.3556C81.0653 39.2404 81.3866 39.0578 81.6632 38.8182C81.9399 38.5787 82.1666 38.2869 82.3303 37.9596C82.4941 37.6322 82.5916 37.2758 82.6173 36.9108C82.6431 36.5457 82.5966 36.1791 82.4804 35.8321Z" fill="url(#paint4_linear_782_1082)" fill-opacity="0.2"/>
<path d="M82.1008 35.958L82.1011 35.959C82.2006 36.2562 82.2404 36.57 82.2183 36.8826C82.1963 37.1952 82.1128 37.5004 81.9726 37.7806C81.8324 38.0609 81.6383 38.3107 81.4014 38.5158C81.1645 38.721 80.8895 38.8773 80.592 38.976L80.5914 38.9762L64.0892 44.4806L63.8996 44.5439L63.8364 44.7335L61.4229 51.967L61.3881 52.071L61.4114 52.1782L64.7888 67.7802C64.7888 67.7803 64.7888 67.7803 64.7888 67.7803C64.8239 67.9424 64.8176 68.1108 64.7707 68.2699C64.7238 68.429 64.6377 68.5738 64.5202 68.691L64.52 68.6913C62.0469 71.1642 58.896 72.8482 55.4658 73.5305C52.0356 74.2127 48.4802 73.8625 45.249 72.5242C42.0179 71.1858 39.2561 68.9194 37.313 66.0115C35.3698 63.1036 34.3326 59.6848 34.3324 56.1875L34.3324 56.1859C34.3315 55.9598 34.408 55.7402 34.5491 55.5635C34.6903 55.3869 34.8876 55.2638 35.1084 55.2147L43.2693 53.4067C43.2697 53.4066 43.2701 53.4066 43.2704 53.4065C44.2885 53.1848 45.1997 52.6203 45.8516 51.8075C46.5035 50.9946 46.8566 49.9827 46.8519 48.9408V45.059V44.659H46.4519H29.7592C29.1274 44.659 28.5215 44.408 28.0748 43.9613C27.628 43.5145 27.3771 42.9086 27.3771 42.2769C27.3771 41.6451 27.628 41.0392 28.0748 40.5924C28.5215 40.1457 29.1274 39.8947 29.7592 39.8947H62.694H62.7589L62.8205 39.8742L79.0835 34.449L79.0838 34.4489C79.381 34.3495 79.6948 34.3096 80.0074 34.3317C80.32 34.3537 80.6252 34.4373 80.9054 34.5774C81.1857 34.7176 81.4355 34.9117 81.6406 35.1486C81.8458 35.3855 82.0021 35.6606 82.1008 35.958Z" stroke="url(#paint5_linear_782_1082)" stroke-opacity="0.1" stroke-width="0.8"/>
</g>
</g>
<defs>
<filter id="filter0_bi_782_1082" x="10.9771" y="17.9258" width="87.647" height="72.3437" filterUnits="userSpaceOnUse" color-interpolation-filters="sRGB">
<feFlood flood-opacity="0" result="BackgroundImageFix"/>
<feGaussianBlur in="BackgroundImageFix" stdDeviation="8"/>
<feComposite in2="SourceAlpha" operator="in" result="effect1_backgroundBlur_782_1082"/>
<feBlend mode="normal" in="SourceGraphic" in2="effect1_backgroundBlur_782_1082" result="shape"/>
<feColorMatrix in="SourceAlpha" type="matrix" values="0 0 0 0 0 0 0 0 0 0 0 0 0 0 0 0 0 0 127 0" result="hardAlpha"/>
<feOffset dy="5.33333"/>
<feGaussianBlur stdDeviation="4"/>
<feComposite in2="hardAlpha" operator="arithmetic" k2="-1" k3="1"/>
<feColorMatrix type="matrix" values="0 0 0 0 1 0 0 0 0 1 0 0 0 0 1 0 0 0 0.4 0"/>
<feBlend mode="normal" in2="shape" result="effect2_innerShadow_782_1082"/>
</filter>
<linearGradient id="paint0_linear_782_1082" x1="52.0161" y1="68.707" x2="60.6552" y2="69.5502" gradientUnits="userSpaceOnUse">
<stop stop-color="#FFA39E"/>
<stop offset="1" stop-color="#F01E33"/>
</linearGradient>
<linearGradient id="paint1_linear_782_1082" x1="29.7583" y1="60.3633" x2="52.7003" y2="66.1889" gradientUnits="userSpaceOnUse">
<stop stop-color="#FFA39E"/>
<stop offset="1" stop-color="#F01E33"/>
</linearGradient>
<linearGradient id="paint2_linear_782_1082" x1="47.8428" y1="22.8008" x2="64.2291" y2="26.9616" gradientUnits="userSpaceOnUse">
<stop stop-color="#FFA39E"/>
<stop offset="1" stop-color="#F01E33"/>
</linearGradient>
<linearGradient id="paint3_linear_782_1082" x1="32.731" y1="36.707" x2="82.3758" y2="53.3332" gradientUnits="userSpaceOnUse">
<stop stop-color="#FFA39E"/>
<stop offset="1" stop-color="#F01E33"/>
</linearGradient>
<linearGradient id="paint4_linear_782_1082" x1="26.9771" y1="33.9258" x2="89.1303" y2="55.6937" gradientUnits="userSpaceOnUse">
<stop stop-color="#FFBF80"/>
<stop offset="1" stop-color="#FF384C"/>
</linearGradient>
<linearGradient id="paint5_linear_782_1082" x1="28.716" y1="35.7596" x2="82.6243" y2="35.7596" gradientUnits="userSpaceOnUse">
<stop stop-color="#FFD580"/>
<stop offset="1" stop-color="#E65A53"/>
</linearGradient>
<clipPath id="clip0_782_1082">
<rect width="64" height="64" fill="white" transform="translate(22.7998 22.8008)"/>
</clipPath>
</defs>
</svg>
