<svg width="111" height="110" viewBox="0 0 111 110" fill="none" xmlns="http://www.w3.org/2000/svg">
<rect x="0.400391" width="110" height="110" rx="39.6" fill="#EDEDED"/>
<g clip-path="url(#clip0_782_1063)">
<path d="M67.1737 40.3918H47.6954C47.0234 40.3918 46.478 39.8464 46.478 39.1744C46.478 38.5024 47.0234 37.957 47.6954 37.957H67.1737C67.8457 37.957 68.3911 38.5024 68.3911 39.1744C68.3911 39.8464 67.8457 40.3918 67.1737 40.3918Z" fill="url(#paint0_linear_782_1063)"/>
<path d="M67.1737 50.1309H47.6954C47.0234 50.1309 46.478 49.5856 46.478 48.9136C46.478 48.2416 47.0234 47.6962 47.6954 47.6962H67.1737C67.8457 47.6962 68.3911 48.2416 68.3911 48.9136C68.3911 49.5856 67.8457 50.1309 67.1737 50.1309Z" fill="url(#paint1_linear_782_1063)"/>
<path d="M67.1737 59.8701H47.6954C47.0234 59.8701 46.478 59.3247 46.478 58.6527C46.478 57.9807 47.0234 57.4353 47.6954 57.4353H67.1737C67.8457 57.4353 68.3911 57.9807 68.3911 58.6527C68.3911 59.3247 67.8457 59.8701 67.1737 59.8701Z" fill="url(#paint2_linear_782_1063)"/>
<path d="M56.2172 69.6092H47.6954C47.0234 69.6092 46.478 69.0638 46.478 68.3918C46.478 67.7198 47.0234 67.1744 47.6954 67.1744H56.2172C56.8892 67.1744 57.4345 67.7198 57.4345 68.3918C57.4345 69.0638 56.8892 69.6092 56.2172 69.6092Z" fill="url(#paint3_linear_782_1063)"/>
<path d="M34.6216 27C31.2604 27 28.5347 29.7257 28.5347 33.087H40.7086C40.7086 29.7257 37.9828 27 34.6216 27Z" fill="url(#paint4_linear_782_1063)"/>
<g filter="url(#filter0_bi_782_1063)">
<path d="M69.6084 27L34.0215 27C37.3827 27 39.1736 29.7257 39.1736 33.087V76.913C39.1736 80.2743 41.8993 83 45.2606 83H75.6953V33.087C75.6953 29.7257 72.9696 27 69.6084 27Z" fill="url(#paint5_linear_782_1063)" fill-opacity="0.2"/>
<path d="M38.1329 28.5664C37.7471 28.0767 37.2838 27.6648 36.7473 27.35H69.6084C72.7763 27.35 75.3453 29.919 75.3453 33.087V82.65H45.2606C42.0926 82.65 39.5236 80.081 39.5236 76.913V33.087C39.5236 31.3485 39.0609 29.7443 38.1329 28.5664Z" stroke="url(#paint6_linear_782_1063)" stroke-opacity="0.1" stroke-width="0.7"/>
</g>
<g filter="url(#filter1_i_782_1063)">
<path d="M67.1737 40.3918H47.6954C47.0234 40.3918 46.478 39.8464 46.478 39.1744C46.478 38.5024 47.0234 37.957 47.6954 37.957H67.1737C67.8457 37.957 68.3911 38.5024 68.3911 39.1744C68.3911 39.8464 67.8457 40.3918 67.1737 40.3918Z" fill="url(#paint7_linear_782_1063)"/>
<path d="M67.1737 50.1309H47.6954C47.0234 50.1309 46.478 49.5856 46.478 48.9136C46.478 48.2416 47.0234 47.6962 47.6954 47.6962H67.1737C67.8457 47.6962 68.3911 48.2416 68.3911 48.9136C68.3911 49.5856 67.8457 50.1309 67.1737 50.1309Z" fill="url(#paint8_linear_782_1063)"/>
<path d="M67.1737 59.8701H47.6954C47.0234 59.8701 46.478 59.3247 46.478 58.6527C46.478 57.9807 47.0234 57.4353 47.6954 57.4353H67.1737C67.8457 57.4353 68.3911 57.9807 68.3911 58.6527C68.3911 59.3247 67.8457 59.8701 67.1737 59.8701Z" fill="url(#paint9_linear_782_1063)"/>
<path d="M56.2172 69.6092H47.6954C47.0234 69.6092 46.478 69.0638 46.478 68.3918C46.478 67.7198 47.0234 67.1744 47.6954 67.1744H56.2172C56.8892 67.1744 57.4345 67.7198 57.4345 68.3918C57.4345 69.0638 56.8892 69.6092 56.2172 69.6092Z" fill="url(#paint10_linear_782_1063)"/>
</g>
<path d="M51.3482 76.9102C51.3482 80.2714 48.6224 82.9971 45.2612 82.9971H76.9134C80.2746 82.9971 83.0004 80.2714 83.0004 76.9102H51.3482Z" fill="url(#paint11_linear_782_1063)"/>
</g>
<defs>
<filter id="filter0_bi_782_1063" x="20.0215" y="13" width="69.6738" height="84" filterUnits="userSpaceOnUse" color-interpolation-filters="sRGB">
<feFlood flood-opacity="0" result="BackgroundImageFix"/>
<feGaussianBlur in="BackgroundImageFix" stdDeviation="7"/>
<feComposite in2="SourceAlpha" operator="in" result="effect1_backgroundBlur_782_1063"/>
<feBlend mode="normal" in="SourceGraphic" in2="effect1_backgroundBlur_782_1063" result="shape"/>
<feColorMatrix in="SourceAlpha" type="matrix" values="0 0 0 0 0 0 0 0 0 0 0 0 0 0 0 0 0 0 127 0" result="hardAlpha"/>
<feOffset dy="4.66667"/>
<feGaussianBlur stdDeviation="3.5"/>
<feComposite in2="hardAlpha" operator="arithmetic" k2="-1" k3="1"/>
<feColorMatrix type="matrix" values="0 0 0 0 1 0 0 0 0 1 0 0 0 0 1 0 0 0 0.4 0"/>
<feBlend mode="normal" in2="shape" result="effect2_innerShadow_782_1063"/>
</filter>
<filter id="filter1_i_782_1063" x="46.478" y="37.957" width="21.9131" height="36.319" filterUnits="userSpaceOnUse" color-interpolation-filters="sRGB">
<feFlood flood-opacity="0" result="BackgroundImageFix"/>
<feBlend mode="normal" in="SourceGraphic" in2="BackgroundImageFix" result="shape"/>
<feColorMatrix in="SourceAlpha" type="matrix" values="0 0 0 0 0 0 0 0 0 0 0 0 0 0 0 0 0 0 127 0" result="hardAlpha"/>
<feOffset dy="4.66667"/>
<feGaussianBlur stdDeviation="2.33333"/>
<feComposite in2="hardAlpha" operator="arithmetic" k2="-1" k3="1"/>
<feColorMatrix type="matrix" values="0 0 0 0 1 0 0 0 0 1 0 0 0 0 1 0 0 0 0.4 0"/>
<feBlend mode="normal" in2="shape" result="effect1_innerShadow_782_1063"/>
</filter>
<linearGradient id="paint0_linear_782_1063" x1="46.478" y1="37.957" x2="73.1316" y2="42.6424" gradientUnits="userSpaceOnUse">
<stop stop-color="#FFA39E"/>
<stop offset="1" stop-color="#F01E33"/>
</linearGradient>
<linearGradient id="paint1_linear_782_1063" x1="46.478" y1="37.957" x2="73.1316" y2="42.6424" gradientUnits="userSpaceOnUse">
<stop stop-color="#FFA39E"/>
<stop offset="1" stop-color="#F01E33"/>
</linearGradient>
<linearGradient id="paint2_linear_782_1063" x1="46.478" y1="37.957" x2="73.1316" y2="42.6424" gradientUnits="userSpaceOnUse">
<stop stop-color="#FFA39E"/>
<stop offset="1" stop-color="#F01E33"/>
</linearGradient>
<linearGradient id="paint3_linear_782_1063" x1="46.478" y1="37.957" x2="73.1316" y2="42.6424" gradientUnits="userSpaceOnUse">
<stop stop-color="#FFA39E"/>
<stop offset="1" stop-color="#F01E33"/>
</linearGradient>
<linearGradient id="paint4_linear_782_1063" x1="28.5347" y1="27" x2="40.6701" y2="33.1628" gradientUnits="userSpaceOnUse">
<stop stop-color="#FFA39E"/>
<stop offset="1" stop-color="#F01E33"/>
</linearGradient>
<linearGradient id="paint5_linear_782_1063" x1="34.0215" y1="27" x2="84.4756" y2="36.5338" gradientUnits="userSpaceOnUse">
<stop stop-color="#FFBF80"/>
<stop offset="1" stop-color="#FF384C"/>
</linearGradient>
<linearGradient id="paint6_linear_782_1063" x1="35.3238" y1="29.5455" x2="75.6953" y2="29.5455" gradientUnits="userSpaceOnUse">
<stop stop-color="#FFD580"/>
<stop offset="1" stop-color="#E65A53"/>
</linearGradient>
<linearGradient id="paint7_linear_782_1063" x1="46.478" y1="37.957" x2="73.1316" y2="42.6424" gradientUnits="userSpaceOnUse">
<stop stop-color="#FFA39E"/>
<stop offset="1" stop-color="#F01E33"/>
</linearGradient>
<linearGradient id="paint8_linear_782_1063" x1="46.478" y1="37.957" x2="73.1316" y2="42.6424" gradientUnits="userSpaceOnUse">
<stop stop-color="#FFA39E"/>
<stop offset="1" stop-color="#F01E33"/>
</linearGradient>
<linearGradient id="paint9_linear_782_1063" x1="46.478" y1="37.957" x2="73.1316" y2="42.6424" gradientUnits="userSpaceOnUse">
<stop stop-color="#FFA39E"/>
<stop offset="1" stop-color="#F01E33"/>
</linearGradient>
<linearGradient id="paint10_linear_782_1063" x1="46.478" y1="37.957" x2="73.1316" y2="42.6424" gradientUnits="userSpaceOnUse">
<stop stop-color="#FFA39E"/>
<stop offset="1" stop-color="#F01E33"/>
</linearGradient>
<linearGradient id="paint11_linear_782_1063" x1="45.2612" y1="76.9102" x2="58.8657" y2="98.3276" gradientUnits="userSpaceOnUse">
<stop stop-color="#FFA39E"/>
<stop offset="1" stop-color="#F01E33"/>
</linearGradient>
<clipPath id="clip0_782_1063">
<rect width="56" height="56" fill="white" transform="translate(27 27)"/>
</clipPath>
</defs>
</svg>
